# Blender 3.1.0
# www.blender.org
mtllib wfc_track_path.mtl
o Path
v -0.100000 0.000000 0.500000
v -0.383013 0.000000 -0.336603
v -0.100000 0.050000 0.500000
v -0.383013 0.050000 -0.336603
v 0.100000 0.000000 -0.057735
v 0.100000 0.050000 -0.057735
v -0.483013 0.000000 -0.163397
v 0.100000 0.000000 0.500000
v 0.100000 0.050000 0.500000
v -0.483013 0.050000 -0.163397
v 0.100000 0.000000 -0.057735
v 0.100000 0.050000 -0.057735
v -0.408013 0.000000 -0.293301
v -0.050000 0.000000 0.500000
v 0.050000 0.000000 0.500000
v -0.458013 0.000000 -0.206699
v 0.050000 0.050000 0.500000
v -0.458013 0.050000 -0.206699
v 0.050000 0.050000 -0.028868
v -0.050000 0.050000 0.500000
v -0.408013 0.050000 -0.293301
v 0.050000 0.050000 0.028868
v 0.000000 0.050000 -0.057735
v 0.050000 0.050000 -0.028867
v 0.050000 0.000000 -0.028868
v 0.050000 0.000000 -0.028867
v 0.000000 0.000000 -0.057735
v 0.050000 0.000000 0.028868
v -0.100000 0.050000 0.057735
v -0.100000 0.050000 0.057735
v -0.050000 0.000000 0.028868
v -0.050000 0.050000 0.028868
v -0.100000 0.000000 0.057735
v 0.000000 0.050000 -0.057735
v 0.100000 0.050000 -0.057735
v 0.050000 0.000000 -0.028867
v 0.050000 0.050000 -0.028867
v 0.050000 0.000000 0.028868
v 0.050000 0.050000 0.028868
v 0.000000 0.000000 -0.057735
v 0.100000 0.000000 -0.057735
v 0.100000 0.000000 -0.057735
v 0.100000 0.000000 -0.057735
vn -0.0000 1.0000 -0.0000
vn -0.0000 -0.0000 1.0000
vn -1.0000 -0.0000 -0.0000
vn 0.5000 -0.0000 -0.8660
vn -0.5000 -0.0000 0.8660
vn 1.0000 -0.0000 -0.0000
vn -0.0000 -1.0000 -0.0000
vn -0.8660 -0.0000 -0.5000
vt 0.375000 1.000000
vt 0.375000 1.000000
vt 0.625000 1.000000
vt 0.625000 1.000000
vt 0.833333 0.500000
vt 0.457846 0.370000
vt 0.375000 0.750000
vt 0.375000 0.750000
vt 0.625000 0.750000
vt 0.625000 0.750000
vt 0.957846 0.370000
vt 0.375000 0.937500
vt 0.375000 0.937500
vt 0.375000 0.812500
vt 0.375000 0.812500
vt 0.625000 0.812500
vt 0.625000 0.812500
vt 0.625000 0.937500
vt 0.625000 0.937500
vt 0.492453 0.448673
vt 0.261557 1.000000
vt 0.492453 0.448673
vt 0.000000 0.000000
vt 0.000000 0.000000
vt 0.209799 0.603517
vt 0.738443 0.551758
vt 0.000000 0.000000
vt 0.000000 0.000000
vt 0.957846 0.370000
vt 0.957846 0.370000
s 0
usemtl Metal
f 10/10/1 30/22/1 32/24/1 18/17/1
f 14/13/2 20/18/2 3/3/2 1/1/2
f 8/8/2 9/9/2 17/16/2 15/14/2
f 33/25/3 1/1/3 3/3/3 29/21/3
f 4/4/4 6/6/4 5/5/4 2/2/4
f 21/19/5 13/12/5 36/27/5 37/28/5
f 41/29/1 43/30/1 11/11/1
f 6/6/6 9/9/6 8/8/6 5/5/6
f 18/17/4 32/24/4 31/23/4 16/15/4
f 14/13/7 1/1/7 33/26/7 31/23/7
f 13/12/8 21/19/8 4/4/8 2/2/8
f 7/7/8 10/10/8 18/17/8 16/15/8
f 16/15/7 31/23/7 33/26/7 7/7/7
f 10/10/5 7/7/5 33/26/5 29/20/5 30/22/5
f 3/3/1 20/18/1 32/24/1 30/22/1 29/21/1
f 20/18/6 14/13/6 31/23/6 32/24/6
f 17/16/3 37/28/3 36/27/3 15/14/3
f 37/28/1 6/6/1 4/4/1 21/19/1
f 17/16/1 9/9/1 6/6/1 37/28/1
f 13/12/7 2/2/7 5/5/7 36/27/7
f 5/5/7 8/8/7 15/14/7 36/27/7
l 12 35
l 23 34
l 6 35
l 25 36
l 28 38
l 22 39
l 27 40
l 5 42
l 19 37
l 41 42
l 24 37
l 26 36
