# Blender 3.1.0
# www.blender.org
mtllib wfc_tile_wall_concave.mtl
o 200
v 0.433013 -1.000000 -0.250000
v 0.433013 1.000000 -0.250000
v -0.433013 -1.000000 -0.250000
v -0.433013 1.000000 -0.250000
v -0.000000 -1.000000 -0.000000
v -0.000000 1.000000 0.000000
vn -0.5000 -0.0000 -0.8660
vn 0.5000 -0.0000 -0.8660
vt 0.716506 0.000000
vt 0.716506 1.000000
vt 0.283494 0.000000
vt 0.283494 1.000000
vt 0.500000 0.000000
vt 0.500000 1.000000
s 0
usemtl Grass
f 2/2/1 1/1/1 5/5/1 6/6/1
f 4/4/2 6/6/2 5/5/2 3/3/2
